<?xml version="1.0" standalone="no"?>
<!DOCTYPE svg PUBLIC "-//W3C//DTD SVG 20010904//EN"
 "http://www.w3.org/TR/2001/REC-SVG-20010904/DTD/svg10.dtd">
<svg version="1.0" xmlns="http://www.w3.org/2000/svg"
 width="500.000000pt" height="500.000000pt" viewBox="0 0 500.000000 500.000000"
 preserveAspectRatio="xMidYMid meet">

<g transform="translate(0.000000,500.000000) scale(0.100000,-0.100000)"
fill="#000000" stroke="none">
<path d="M1719 2831 c-16 -16 -29 -34 -29 -40 0 -19 35 -12 48 9 11 18 23 20
110 20 63 0 102 -4 110 -12 7 -7 12 -29 12 -50 l0 -38 -70 0 c-63 0 -70 -2
-70 -20 0 -18 7 -20 70 -20 l70 0 0 -38 c0 -21 -5 -43 -12 -50 -8 -8 -47 -12
-110 -12 -87 0 -99 2 -110 20 -13 21 -48 28 -48 9 0 -6 13 -24 29 -40 28 -28
33 -29 121 -29 144 0 170 25 170 160 0 135 -26 160 -170 160 -88 0 -93 -1
-121 -29z"/>
<path d="M2089 2831 c-28 -29 -29 -32 -29 -130 0 -91 2 -102 24 -128 23 -27
29 -28 125 -31 101 -4 101 -4 131 26 16 17 30 35 30 41 0 18 -24 12 -38 -9
-11 -18 -23 -20 -111 -20 -126 0 -131 4 -131 122 0 114 5 118 133 118 86 0 98
-2 109 -20 14 -21 38 -27 38 -9 0 6 -13 24 -29 40 -29 28 -33 29 -126 29 -93
0 -97 -1 -126 -29z"/>
<path d="M2390 2840 c0 -17 8 -19 73 -22 l72 -3 3 -137 c4 -185 22 -183 22 2
l0 140 55 0 c48 0 55 2 55 20 0 19 -7 20 -140 20 -132 0 -140 -1 -140 -20z"/>
<path d="M668 2783 c6 -2 18 -2 25 0 6 3 1 5 -13 5 -14 0 -19 -2 -12 -5z"/>
<path d="M770 2600 c-18 -12 -2 -12 25 0 13 6 15 9 5 9 -8 0 -22 -4 -30 -9z"/>
<path d="M1700 2280 l0 -160 123 0 c123 0 154 8 179 44 12 17 9 74 -4 96 -10
16 -10 24 0 40 6 11 12 33 12 49 0 76 -31 91 -190 91 l-120 0 0 -160z m268
108 c16 -16 15 -63 -2 -77 -9 -8 -51 -11 -122 -9 l-109 3 -3 33 c-6 61 -3 62
116 62 71 0 112 -4 120 -12z m0 -140 c16 -16 15 -63 -2 -77 -9 -8 -51 -11
-122 -9 l-109 3 -3 33 c-6 61 -3 62 116 62 71 0 112 -4 120 -12z"/>
<path d="M2101 2414 l-31 -26 0 -108 0 -108 31 -26 c28 -23 39 -26 114 -26
139 0 165 25 165 160 0 135 -26 160 -165 160 -75 0 -86 -3 -114 -26z m237 -26
c16 -16 16 -200 0 -216 -16 -16 -210 -16 -226 0 -8 8 -12 47 -12 108 0 61 4
100 12 108 8 8 48 12 113 12 65 0 105 -4 113 -12z"/>
<path d="M2493 2424 c-43 -22 -53 -56 -53 -192 0 -104 1 -114 15 -96 10 14 14
48 15 130 0 118 4 129 50 136 14 1 26 11 28 21 4 21 -13 21 -55 1z"/>
</g>
</svg>
